<svg width="41" height="40" viewBox="0 0 41 40" fill="none" xmlns="http://www.w3.org/2000/svg">
<path d="M3.22395 26.7778L3.09326 26.8137L3.21073 26.7363C3.21462 26.7495 3.21928 26.7637 3.22395 26.7778Z" fill="white"/>
<path d="M11.0749 1.39941C10.9123 1.47394 10.7015 1.57677 10.4526 1.70978L10.4331 1.69469C10.6463 1.58997 10.8625 1.49186 11.0749 1.39941Z" fill="white"/>
<path d="M3.22395 26.7778L3.09326 26.8137L3.21073 26.7363C3.21462 26.7495 3.21928 26.7637 3.22395 26.7778Z" fill="white"/>
<path d="M11.4314 1.24658C11.3155 1.29469 11.198 1.34092 11.0845 1.39563C11.2642 1.31262 11.3847 1.26168 11.4314 1.24658Z" fill="white"/>
<path d="M37.698 23.6192C37.698 23.6192 39.3838 22.6956 39.057 17.6854L38.84 16.2346H38.5677C38.5677 16.2346 38.3507 13.9243 36.395 9.83672C36.395 9.83672 34.9271 6.80383 33.7851 6.40856C33.7851 6.40856 32.8065 6.21045 32.0457 6.60572C32.0457 6.60572 31.6645 6.73779 31.4475 6.60572C31.2305 6.47365 30.2495 6.9359 30.1717 7.23211C30.1717 7.23211 29.7361 8.74903 30.8781 8.61696C30.8781 8.61696 31.9671 7.89151 32.0745 7.62832C32.1818 7.36512 31.8567 7.23211 32.4549 7.10098C33.0531 6.96986 33.705 6.90288 34.1399 7.16702C34.5747 7.43116 36.7497 11.1885 37.239 13.6281C37.7284 16.0676 37.5105 17.7156 36.7497 18.5062C35.9889 19.2967 33.705 20.7476 30.0084 17.1855C30.0084 17.1855 28.7575 15.9336 28.7575 15.2742L28.9815 15.1318L29.001 15.1195L29.0157 15.1101L29.0305 15.1016L31.831 13.329L28.8353 14.1969L28.1904 14.3856C28.1904 14.3856 26.6136 11.8149 26.885 10.6282C27.1565 9.44145 28.1904 9.24334 28.1904 9.24334C28.1904 9.24334 28.2985 9.63861 28.8967 9.44145C29.4949 9.24429 30.0932 9.17731 29.9298 8.32074C29.7664 7.46417 29.4405 7.46323 29.0056 7.5953C28.5708 7.72737 28.0815 8.0566 27.9726 8.51791C27.9726 8.51791 26.3957 9.44145 26.3389 10.6942C26.2915 11.8017 27.3502 14.0903 27.5937 14.611C27.0144 14.8085 26.4375 15.0132 25.8629 15.2252C25.1452 12.7161 24.1384 10.3427 22.8726 8.17547C23.6147 7.41135 24.3625 6.56956 25.1161 5.6501C25.1161 5.6501 26.0402 4.3294 26.0402 3.86999C26.0402 3.41057 26.1491 2.81532 25.3339 2.48514C24.5513 2.16912 19.3657 -2.02976 11.4567 1.23802H11.4497H11.4435H11.4349C11.319 1.28613 11.2016 1.33236 11.088 1.38707H11.0787C10.9161 1.4616 10.7053 1.56442 10.4563 1.69744C7.95378 3.03417 1.55545 7.48964 0.59629 18.4279C-0.603251 32.0877 9.67219 40.0656 16.5225 39.9996C21.3728 39.9524 26.4276 37.245 29.5642 32.5546C30.2785 32.4418 31.0027 32.6382 31.6093 33.1093C33.3487 34.43 34.1095 36.8016 36.7739 36.7356C39.4382 36.6695 40.1967 34.4942 40.4705 32.2528C40.7443 30.0113 39.057 25.9898 37.698 23.6192ZM26.3444 19.8457C26.1406 19.6693 25.9096 19.5442 25.6653 19.4777C25.4209 19.4113 25.168 19.4049 24.9216 19.459C23.3992 19.7882 23.0188 21.3042 23.1822 22.5569C23.3455 23.8097 24.3242 24.0078 24.3242 24.0078L24.2697 24.2059H23.9974C23.9974 24.2059 23.8761 24.5219 23.7298 25.0332C20.4564 25.6172 16.5248 27.2916 12.5956 31.2934C11.3665 29.2774 10.3785 26.9983 9.62707 24.6351C15.9834 22.2022 21.9624 19.092 25.5587 17.0977C25.8629 18.0534 26.1266 18.9769 26.3444 19.8457ZM24.9216 24.4682C24.759 24.4021 24.8135 24.3361 24.8135 24.3361C24.8135 24.3361 26.3522 24.5295 27.0181 22.8805C27.1612 23.6286 27.267 24.2729 27.3425 24.7804C26.538 24.7499 25.7327 24.7774 24.9309 24.8625C24.99 24.7333 25.0289 24.6663 25.0289 24.6663C25.0289 24.6663 25.085 24.5389 24.9216 24.4729V24.4682ZM25.0235 15.5327C18.9184 17.8534 13.2311 20.8108 9.17821 23.1145C8.51142 20.6746 8.08297 18.1483 7.90166 15.5874C11.3781 15.5685 16.4089 14.3497 21.8776 9.15184C23.2047 11.1357 24.2316 13.3649 25.0235 15.5374V15.5327ZM23.8621 4.06809C23.8621 4.06809 23.1892 5.14541 21.8737 6.61515C20.2549 4.27752 18.6765 2.87569 17.7321 2.16063C19.6761 2.22383 21.8706 2.69551 23.8621 4.06809ZM9.40147 5.51803C13.3159 -0.943016 19.6225 6.37554 19.6225 6.37554C20.0445 6.79901 20.4475 7.24964 20.8298 7.72548C18.1709 10.3895 13.799 13.6809 7.84876 14.5743C7.70174 10.7697 8.22527 7.45757 9.40147 5.51803ZM3.22408 26.7775L3.09339 26.8134L3.21085 26.736C2.87573 25.7015 2.60935 24.6362 2.41427 23.5503C1.1525 16.5638 4.02144 10.249 6.97128 6.89062C6.45319 8.68299 6.05178 11.4404 6.18481 14.7563C5.1551 14.8273 4.12285 14.8248 3.09339 14.7488C3.09339 14.7488 4.25403 15.2921 6.2237 15.5035C6.41034 18.3813 6.95726 21.2079 7.84565 23.8861C5.33066 25.3549 3.65271 26.4492 3.21085 26.7322C3.21474 26.7454 3.21941 26.7596 3.22408 26.7737C4.90437 26.3021 6.6041 25.7474 8.2875 25.1342C8.49495 25.6895 8.7208 26.248 8.96507 26.8096C9.7718 28.688 10.7208 30.4714 11.7998 32.1367C10.7803 33.2636 9.82471 34.4726 8.93939 35.7554C6.37597 33.4741 4.39505 30.3624 3.22408 26.7775ZM10.0557 36.5545C10.8215 35.3763 11.6669 34.2776 12.5831 33.2697C15.3214 37.0082 17.7469 38.1195 18.5365 38.3997C16.0822 38.6006 13.2646 38.1063 10.0557 36.5545ZM20.2868 38.1299L20.0013 38.0874C17.3408 37.0384 15.1253 35.0149 13.347 32.4509C15.638 30.0859 19.0499 27.3775 23.4731 26.1058C23.2678 27.136 23.1371 28.4369 23.3992 29.6151C23.9282 31.9896 24.7154 34.364 27.9656 33.2121C26.0861 35.3866 23.5532 37.3818 20.2868 38.1299ZM39.3838 32.3188C39.3838 32.3188 39.0026 36.8016 35.4164 35.0215C35.4164 35.0215 34.3273 34.4942 33.1869 32.9782C32.4502 31.9999 31.3518 31.432 30.3436 31.2801C31.2705 29.6124 31.939 27.7538 32.3164 25.7955C32.2861 25.8832 31.3977 28.452 29.4763 31.2518C29.2596 31.2711 29.0453 31.3198 28.8376 31.3971C27.6419 31.8594 25.6847 33.7706 24.7061 30.3425C24.146 28.3822 24.3335 26.8086 24.5964 25.8219C25.5331 25.6114 26.4799 25.4743 27.4311 25.4115C27.4825 25.804 27.5043 26.02 27.5043 26.02C27.4965 25.8143 27.4877 25.6106 27.4778 25.4087C28.9207 25.3197 30.3672 25.392 31.7991 25.6247C31.7991 25.6247 30.111 24.9049 27.4428 24.787C27.3878 23.8525 27.31 22.9513 27.2094 22.0834C27.2401 21.69 27.1887 21.2936 27.0601 20.9306C26.8634 19.5052 26.5943 18.096 26.2542 16.711C27.0468 16.2657 27.691 15.8931 28.1577 15.6195C28.78 16.6883 29.8115 18.4071 30.3553 19.0665C31.1706 20.0561 31.3884 20.2533 31.3884 20.2533C31.3884 20.2533 31.2795 20.5174 31.3884 20.6495C31.4973 20.7815 33.2367 23.5503 35.5206 24.1399C35.9871 24.2545 36.4677 24.2545 36.9341 24.1399C36.9341 24.1399 39.8731 29.751 39.3838 32.3188Z" fill="white"/>
</svg>
