<svg width="180" height="91" viewBox="0 0 180 91" fill="none" xmlns="http://www.w3.org/2000/svg">
<path d="M102 -3.5L119.25 -33.3779L153.75 -33.3779L171 -3.5L153.75 26.3779L119.25 26.3779L102 -3.5Z" fill="white" fill-opacity="0.1"/>
<path d="M51 26.5L68.25 -3.37788L102.75 -3.37788L120 26.5L102.75 56.3779L68.25 56.3779L51 26.5Z" fill="white" fill-opacity="0.1"/>
<path d="M85 26.5L102.25 -3.37788L136.75 -3.37788L154 26.5L136.75 56.3779L102.25 56.3779L85 26.5Z" fill="white" fill-opacity="0.1"/>
<path d="M115.5 34.5L123 28.5L130.5 26.5L136 32L130 42L116 44L115.5 34.5Z" fill="#1A60CA"/>
<path d="M115.5 17.5L121.5 14L127.5 21L130.5 26.5L123 28.5L119.5 25.5L116 19.5L115.5 17.5Z" fill="#3170CF"/>
<path d="M136 12.5L142 9L149 17.5L151 21.5L143.5 23.5L140 20.5L136.5 14.5L136 12.5Z" fill="#3170CF"/>
<path d="M108 22.5L116 19.5L123 28.5L119 32L115.5 34.5L112 30.5L108.5 24.5L108 22.5Z" fill="#3170CF"/>
<path d="M-1.50804e-06 56.5L17.25 26.6221L51.75 26.6221L69 56.5L51.75 86.3779L17.25 86.3779L-1.50804e-06 56.5Z" fill="white" fill-opacity="0.1"/>
<path d="M34 56.5L51.25 26.6221L85.75 26.6221L103 56.5L85.75 86.3779L51.25 86.3779L34 56.5Z" fill="white" fill-opacity="0.1"/>
<path d="M160 15.5L175.66 17.2876L180 27L155 25.5L157 20.5L160 15.5Z" fill="#014EC4"/>
<path d="M151.758 10.541L158.5 18L157 20.5L154 26.4999L148 16L147 14.5L151.758 10.541Z" fill="#1A60CA"/>
</svg>
