<svg width="20" height="20" viewBox="0 0 20 20" fill="none" xmlns="http://www.w3.org/2000/svg">
<path d="M7.50065 12.0833H12.5007M10.0007 9.58333V14.5833M15.5529 7.44985C16.272 8.28883 16.6673 9.35739 16.6673 10.4624V16.6667C16.6673 17.5871 15.9211 18.3333 15.0007 18.3333H5.00065C4.08018 18.3333 3.33398 17.5871 3.33398 16.6667V10.4624C3.33398 9.35739 3.72927 8.28883 4.4484 7.44985C5.32784 6.42383 6.61171 5.83333 7.96306 5.83333H12.0382C13.3896 5.83333 14.6735 6.42383 15.5529 7.44985ZM7.08398 3.75H12.9173C13.6077 3.75 14.1673 3.19036 14.1673 2.5C14.1673 1.80964 13.6077 1.25 12.9173 1.25H7.08398C6.39363 1.25 5.83398 1.80964 5.83398 2.5C5.83398 3.19036 6.39363 3.75 7.08398 3.75Z" stroke="#336EBD" stroke-width="1.5" stroke-linecap="round" stroke-linejoin="round"/>
</svg>
