<svg height="512" viewBox="0 0 512 512" width="512" xmlns="http://www.w3.org/2000/svg"><g id="Layer_2" data-name="Layer 2"><g id="Layer_1-2" data-name="Layer 1"><g id="dcm"><circle cx="256" cy="256" fill="#021433" r="256"/><g fill="#f9f9f9"><path d="m193.86 249.16h17.23q8.22 0 12.23 4.35t4 12.78v35q0 8.42-4 12.78t-12.23 4.35h-17.23zm10.9 9.9v49.51h6.14a5.46 5.46 0 0 0 4.06-1.49c1-1 1.48-2.73 1.48-5.24v-36q0-3.77-1.48-5.25a5.49 5.49 0 0 0 -4.06-1.48z"/><path d="m265.85 292.63v9.21q0 8.42-4.11 12.92t-12.13 4.51q-8 0-12.13-4.51t-4.11-12.92v-36q0-8.42 4.11-12.92t12.13-4.51q8 0 12.13 4.51t4.11 12.92v6.74h-10.3v-7.48c0-2.51-.51-4.27-1.53-5.3a6.29 6.29 0 0 0 -8.22 0c-1 1-1.53 2.79-1.53 5.3v37.43q0 3.77 1.53 5.25a6.45 6.45 0 0 0 8.22 0q1.53-1.48 1.53-5.25v-9.9z"/><path d="m295.56 298.37 7.44-49.21h15.15v69.31h-10.3v-49.71l-7.53 49.71h-10.32l-8.12-49v49h-9.5v-69.31h15.15z"/><path d="m392.35 159.26-94.46-92.93c-2.22-2.24-6.09-2.3-6.09.85v81.82a21 21 0 0 0 20.95 21h82.64c3.15-.07-.83-8.51-3.04-10.74zm-9.49 6.1h-70.11a16.38 16.38 0 0 1 -16.38-16.36v-70.73c0-3.15 2.29-5.08 6-2.49l83 83.55a3.54 3.54 0 0 1 -2.51 6.03z"/><path d="m394.05 347.41v53.51c0 25.51-21.14 46.2-47.22 46.2h-181.66c-26.08 0-47.22-20.69-47.22-46.2v-53.51h-4v53.51c0 27.61 23 50.08 51.19 50.08h181.69c28.22 0 51.19-22.47 51.19-50.08v-53.51z"/><path d="m118 220.2v-108.73c0-25.72 21.14-46.56 47.22-46.56h116.49a23 23 0 0 1 16 6.48l89.49 87a22.38 22.38 0 0 1 6.81 16v45.81h4v-45.81a26.41 26.41 0 0 0 -8-18.83l-89.48-86.95a26.85 26.85 0 0 0 -18.82-7.61h-116.54c-28.17 0-51.17 22.64-51.17 50.47v108.73z"/><path d="m407.67 217.85h-303.34c-23.89 0-43.33 17.77-43.33 39.61v52.71c0 21.84 19.44 39.61 43.33 39.61h303.34c23.89 0 43.33-17.77 43.33-39.61v-52.71c0-21.84-19.44-39.61-43.33-39.61zm38.33 92.32c0 19.35-17.16 35-38.33 35h-303.34c-21.17 0-38.33-15.69-38.33-35v-52.71c0-19.35 17.16-35 38.33-35h303.34c21.17 0 38.33 15.69 38.33 35z"/><rect height="5.33" rx="2.67" width="114.26" x="198.87" y="427.39"/><rect height="8.62" rx="4.31" width="101.64" x="145.55" y="121.27"/><rect height="8.62" rx="4.31" width="78.46" x="145.55" y="104.51"/><rect height="8.62" rx="4.31" width="122.64" x="145.55" y="136.67"/><rect height="5.8" rx="2.9" width="95.21" x="208.39" y="416.06"/><rect height="5.8" rx="2.9" width="82.27" x="214.87" y="404.63"/></g></g></g></g></svg>