<svg viewBox="0 0 512 512" xmlns="http://www.w3.org/2000/svg" xmlns:xlink="http://www.w3.org/1999/xlink"><linearGradient id="linear-gradient" gradientUnits="userSpaceOnUse" x1="56.21" x2="460.33" y1="256" y2="256"><stop offset="0" stop-color="#e08312"/><stop offset=".99" stop-color="#e5bb0c"/></linearGradient><linearGradient id="linear-gradient-2" x1="280.76" x2="455.53" xlink:href="#linear-gradient" y1="76.8" y2="76.8"/><linearGradient id="linear-gradient-3" x1="0" x2="512" xlink:href="#linear-gradient" y1="334.46" y2="334.46"/><linearGradient id="linear-gradient-4" x1="158.19" x2="353.81" xlink:href="#linear-gradient" y1="475.01" y2="475.01"/><linearGradient id="linear-gradient-5" x1="172.27" x2="339.73" xlink:href="#linear-gradient" y1="461.8" y2="461.8"/><linearGradient id="linear-gradient-6" x1="87.97" x2="222.39" xlink:href="#linear-gradient" y1="58.66" y2="58.66"/><linearGradient id="linear-gradient-7" x1="87.97" x2="222.39" xlink:href="#linear-gradient" y1="72.56" y2="72.56"/><linearGradient id="linear-gradient-8" x1="87.97" x2="222.39" xlink:href="#linear-gradient" y1="86.47" y2="86.47"/><linearGradient id="linear-gradient-9" x1="87.97" x2="222.39" xlink:href="#linear-gradient" y1="100.37" y2="100.37"/><linearGradient id="linear-gradient-10" x1="87.97" x2="222.39" xlink:href="#linear-gradient" y1="114.27" y2="114.27"/><linearGradient id="linear-gradient-11" x1="87.97" x2="222.39" xlink:href="#linear-gradient" y1="128.17" y2="128.17"/><g id="Layer_2" data-name="Layer 2"><g id="Layer_1-2" data-name="Layer 1"><g id="DOC"><g id="File"><path d="m281.26 3.94h-188.16a33 33 0 0 0 -32.95 32.94v438.24a33 33 0 0 0 32.95 32.94h330.35a33 33 0 0 0 32.94-32.94l-.86-325.46z" fill="#f4f3f2"/><path d="m423.45 512h-330.35a36.92 36.92 0 0 1 -36.89-36.88v-438.24a36.92 36.92 0 0 1 36.89-36.88h189.59l176.78 147.82.86 327.29a36.92 36.92 0 0 1 -36.88 36.89zm-330.35-504.12a29 29 0 0 0 -29 29v438.24a29 29 0 0 0 29 29h330.35a29 29 0 0 0 29-29l-.85-323.61-171.77-143.63z" fill="url(#linear-gradient)"/><path d="m281.26 3.94-.5 142.28s.5 3.44 3.45 3.44h171.32z" fill="url(#linear-gradient-2)"/></g><rect fill="url(#linear-gradient-3)" height="175.21" rx="13.59" width="512" y="246.86"/><g id="Lines"><rect fill="url(#linear-gradient-4)" height="5.47" rx="2.26" width="195.62" x="158.19" y="472.28"/><rect fill="url(#linear-gradient-5)" height="5.47" rx="2.26" width="167.46" x="172.27" y="459.07"/><rect fill="url(#linear-gradient-6)" height="5.47" rx="2.26" width="134.42" x="87.97" y="55.93"/><rect fill="url(#linear-gradient-7)" height="5.47" rx="2.26" width="134.42" x="87.97" y="69.83"/><rect fill="url(#linear-gradient-8)" height="5.47" rx="2.26" width="134.42" x="87.97" y="83.73"/><rect fill="url(#linear-gradient-9)" height="5.47" rx="2.26" width="134.42" x="87.97" y="97.63"/><rect fill="url(#linear-gradient-10)" height="5.47" rx="2.26" width="134.42" x="87.97" y="111.53"/><rect fill="url(#linear-gradient-11)" height="5.47" rx="2.26" width="134.42" x="87.97" y="125.44"/></g><g fill="#fff"><path d="m128.29 294.92h36.84q10.89 0 17.6 3a28.64 28.64 0 0 1 11.08 8.48 35.12 35.12 0 0 1 6.35 12.87 59.42 59.42 0 0 1 2 15.55q0 12.86-2.93 20a32.9 32.9 0 0 1 -8.13 11.88 26.5 26.5 0 0 1 -11.19 6.3 57.56 57.56 0 0 1 -14.78 2.19h-36.84zm24.79 18.18v43.9h6.08q7.77 0 11.06-1.73a11.65 11.65 0 0 0 5.14-6q1.86-4.29 1.87-13.93 0-12.75-4.17-17.46t-13.79-4.71z"/><path d="m212 335.1q0-19.65 11-30.6t30.49-10.94q20 0 30.88 10.75t10.84 30.14q0 14.07-4.74 23.07a33.75 33.75 0 0 1 -13.69 14q-8.94 5-22.3 5-13.58 0-22.47-4.32a33.81 33.81 0 0 1 -14.43-13.69q-5.58-9.34-5.58-23.41zm24.8.11q0 12.17 4.52 17.47t12.33 5.32q8 0 12.37-5.2t4.38-18.67q0-11.34-4.57-16.56t-12.4-5.23a15.08 15.08 0 0 0 -12.05 5.31q-4.55 5.35-4.54 17.56z"/><path d="m362 342.33 21.73 6.57a40.16 40.16 0 0 1 -6.89 15.27 29.94 29.94 0 0 1 -11.69 9.25q-7 3.12-17.76 3.12-13.1 0-21.38-3.8t-14.32-13.37q-6-9.58-6-24.51 0-19.92 10.59-30.61t30-10.69q15.15 0 23.84 6.13t12.88 18.83l-21.9 4.87a18.93 18.93 0 0 0 -2.41-5.37 14.3 14.3 0 0 0 -5.09-4.37 15.63 15.63 0 0 0 -19.65 5.24q-3.39 5-3.4 15.8 0 13.35 4.06 18.29t11.38 4.95q7.13 0 10.76-4c2.37-2.66 4.14-6.53 5.25-11.6z"/></g></g></g></g></svg>