<svg width="11" height="11" viewBox="0 0 11 11" fill="none" xmlns="http://www.w3.org/2000/svg">
<path d="M5.85622 2.24102L7.87747 4.25677M1.73718 9.73981H9.26302M1.89943 7.67044L2.12539 6.10064C2.13755 5.99809 2.18503 5.90296 2.25968 5.8316L6.68947 1.40227C6.74642 1.34421 6.8174 1.30184 6.89553 1.27928C6.97366 1.25671 7.0563 1.25472 7.13543 1.27348C7.54413 1.38198 7.91574 1.5993 8.21068 1.90231C8.5157 2.19659 8.73496 2.56826 8.84502 2.97756C8.86199 3.05679 8.85907 3.13899 8.83651 3.21681C8.81396 3.29463 8.77247 3.36565 8.71577 3.42352L4.28643 7.85285C4.21006 7.92339 4.11484 7.9702 4.01235 7.9876L2.43706 8.2131C2.36368 8.22301 2.289 8.21576 2.2189 8.19191C2.1488 8.16807 2.08519 8.12828 2.03308 8.07568C1.98097 8.02308 1.94178 7.9591 1.91858 7.88878C1.89539 7.81846 1.88884 7.74372 1.89943 7.67044Z" stroke="#014EC4" stroke-width="1.1" stroke-linecap="round" stroke-linejoin="round"/>
</svg>
