<svg fill="none" height="24" viewBox="0 0 24 24" width="24" xmlns="http://www.w3.org/2000/svg"><path d="m6 23c-1.65685 0-3-1.3431-3-3v-16c0-1.65685 1.34315-3 3-3h12c1.6569 0 3 1.34315 3 3v12c0 .2652-.1054.5196-.2929.7071l-6 6c-.1875.1875-.4419.2929-.7071.2929z" fill="#3747d6"/><g fill="#90caea"><path d="m14.7071 22.7071c-.286.286-.7161.3715-1.0898.2167-.3737-.1547-.6173-.5194-.6173-.9238v-4c0-1.6569 1.3431-3 3-3h4c.4045 0 .7691.2436.9239.6173s.0692.8038-.2168 1.0898z"/><path clip-rule="evenodd" d="m9 20h-2v-2h2z" fill-rule="evenodd"/><path clip-rule="evenodd" d="m12 17h-5v-2h5z" fill-rule="evenodd"/><path clip-rule="evenodd" d="m10 14h-3v-2h3z" fill-rule="evenodd"/><path d="m8 4c-.55228 0-1 .44772-1 1v5c0 .5523.44772 1 1 1h4c.5523 0 1-.4477 1-1v-5c0-.55228-.4477-1-1-1z"/><path d="m12 6c-.5523 0-1 .44772-1 1v3c0 .5523.4477 1 1 1h4c.5523 0 1-.4477 1-1v-3c0-.55228-.4477-1-1-1z"/></g><path clip-rule="evenodd" d="m17 11h-10v-2h10z" fill="#bddef1" fill-rule="evenodd"/></svg>