<svg width="24" height="24" viewBox="0 0 24 24" fill="none" xmlns="http://www.w3.org/2000/svg">
<path fill-rule="evenodd" clip-rule="evenodd" d="M2 12C2 17.5229 6.47745 22 12 22C17.5225 22 22 17.5229 22 12C22 6.47779 17.5222 2 12 2C6.47779 2 2 6.47779 2 12ZM3.5 12C3.5 7.30621 7.30621 3.5 12 3.5C16.6938 3.5 20.5 7.30621 20.5 12C20.5 16.6944 16.6941 20.5 12 20.5C7.30586 20.5 3.5 16.6944 3.5 12ZM9.95572 15.0237C9.73723 15.3168 9.76054 15.7335 10.0262 16.0004C10.3185 16.2939 10.7934 16.2949 11.0869 16.0027L14.5729 12.5317L14.6459 12.4474C14.8649 12.1534 14.8405 11.7352 14.5729 11.4687L11.0869 7.99773L11.0026 7.92529C10.7085 7.70807 10.2919 7.73317 10.0262 8.00001L9.95379 8.08429C9.73657 8.37837 9.76167 8.79498 10.0285 9.06067L12.98 12.0012L10.0285 14.9397L9.95572 15.0237Z" fill="#E6EDF7"/>
</svg>
