<svg id="Layer_1" enable-background="new 0 0 512 512" viewBox="0 0 512 512" xmlns="http://www.w3.org/2000/svg"><g><path d="m448.968 168.463v280.281c0 26.099-21.157 47.256-47.256 47.256h-291.423c-26.099 0-47.256-21.157-47.256-47.256v-385.488c-.001-26.099 21.156-47.256 47.256-47.256h195.188z" fill="#ff6f01"/><path d="m448.968 168.463h-111.987c-17.399 0-31.504-14.105-31.504-31.504v-120.959z" fill="#f9a64b"/><g fill="#fff"><path d="m174.497 282.385h22.613v64.547c0 5.999-1.384 11.322-4.153 16.029-2.8 4.676-6.676 8.338-11.63 10.922-4.984 2.584-10.522 3.877-16.644 3.877-10.245 0-18.213-2.584-23.905-7.753s-8.522-12.491-8.522-21.967h22.736c0 4.307.738 7.415 2.215 9.353 1.508 1.938 3.969 2.923 7.476 2.923 3.138 0 5.569-1.169 7.261-3.538 1.692-2.338 2.554-5.63 2.554-9.845v-64.548z"/><path d="m234.06 344.532v31.935h-22.674v-94.082h37.534c7.199 0 13.568 1.323 19.106 3.969s9.814 6.43 12.86 11.322c3.015 4.892 4.553 10.43 4.553 16.644 0 9.168-3.292 16.491-9.876 21.998-6.553 5.476-15.568 8.215-27.043 8.215h-14.46zm0-17.506h14.86c4.4 0 7.753-1.077 10.06-3.292 2.307-2.184 3.446-5.292 3.446-9.291 0-4.4-1.2-7.907-3.569-10.553-2.369-2.615-5.599-3.938-9.691-4h-15.106z"/><path d="m374.507 364.838c-3.477 3.876-8.584 6.984-15.321 9.353-6.707 2.369-14.06 3.569-22.09 3.569-12.306 0-22.151-3.784-29.505-11.322-7.384-7.538-11.322-18.029-11.845-31.443l-.062-8.153c0-9.261 1.631-17.352 4.923-24.274 3.261-6.892 7.938-12.214 14.06-15.937 6.092-3.723 13.137-5.599 21.136-5.599 11.722 0 20.829 2.677 27.32 8.061 6.461 5.353 10.245 13.352 11.322 23.997h-21.844c-.769-5.261-2.461-9.014-5.046-11.26-2.584-2.246-6.245-3.353-10.983-3.353-5.661 0-10.06 2.4-13.168 7.23s-4.676 11.722-4.707 20.675v5.692c0 9.384 1.6 16.46 4.799 21.167 3.23 4.707 8.276 7.076 15.168 7.076 5.876 0 10.276-1.323 13.168-3.938v-14.614h-15.752v-15.568h38.427z"/></g></g></svg>