<svg width="20" height="20" viewBox="0 0 20 20" fill="none" xmlns="http://www.w3.org/2000/svg">
<circle cx="10" cy="10" r="10" fill="#EDCA65"/>
<path d="M9.28023 10.6728C9.73052 9.85997 10.596 9.38043 11.0989 8.66114C11.6311 7.90675 11.3329 6.49739 9.82409 6.49739C8.83578 6.49739 8.3504 7.24593 8.14572 7.86581L6.6311 7.22839C7.04631 5.98277 8.17496 4.9126 9.81824 4.9126C11.1925 4.9126 12.134 5.53833 12.6136 6.32195C13.0229 6.99447 13.2627 8.25178 12.6311 9.18745C11.9293 10.2225 11.2568 10.5383 10.8943 11.205C10.7481 11.474 10.6896 11.6494 10.6896 12.5149H8.99953C8.99368 12.0588 8.9235 11.3161 9.28023 10.6728ZM10.9937 14.8541C10.9937 15.4974 10.4674 16.0237 9.82409 16.0237C9.18081 16.0237 8.6545 15.4974 8.6545 14.8541C8.6545 14.2108 9.18081 13.6845 9.82409 13.6845C10.4674 13.6845 10.9937 14.2108 10.9937 14.8541Z" fill="white"/>
</svg>
