<svg width="20" height="20" viewBox="0 0 20 20" fill="none" xmlns="http://www.w3.org/2000/svg">
<path fill-rule="evenodd" clip-rule="evenodd" d="M10.0301 1.6665H9.97066C7.16304 1.6665 4.58879 3.70364 4.33904 6.40064C4.32238 6.59357 4.31103 6.79072 4.3037 7.00309L4.29344 7.49962L4.29141 7.9448L4.30394 7.89405C4.18808 8.45904 3.92104 8.98311 3.53044 9.41132L3.47447 9.48334C3.14003 9.99138 2.94787 10.5794 2.91812 11.1867L2.91742 11.3852C2.90035 12.1838 3.17402 12.9741 3.68886 13.6018C4.38703 14.3389 5.2908 14.7787 6.2608 14.872C8.74166 15.1414 11.2517 15.1414 13.7394 14.8713C14.7028 14.7826 15.6093 14.3416 16.2782 13.6317C16.7833 13.0274 17.0589 12.3023 17.0825 11.5515L17.0833 11.2154C17.0557 10.5815 16.8623 9.99291 16.5239 9.48706L16.4724 9.42105L16.3469 9.27335C16.0646 8.92088 15.8586 8.51486 15.7413 8.08057L15.7042 7.92464L15.6965 7.76111C15.6942 7.68756 15.693 7.606 15.6927 7.50414L15.6926 6.94322C15.6907 6.72865 15.6843 6.57607 15.6695 6.40431C15.4112 3.70222 12.8362 1.6665 10.0301 1.6665ZM9.97092 2.82943H10.0304C12.2783 2.82943 14.3289 4.4506 14.5259 6.51102C14.5375 6.64629 14.5427 6.77534 14.5443 6.96705L14.5465 7.72092C14.549 7.84148 14.5538 7.94174 14.5619 8.05456L14.5726 8.13179L14.6267 8.36161C14.7869 8.96956 15.0747 9.53671 15.4709 10.0257L15.5858 10.1604L15.573 10.1393C15.7928 10.4677 15.918 10.8488 15.9355 11.2418L15.9349 11.378C15.9481 11.9247 15.7669 12.4442 15.4239 12.8555C14.9707 13.3349 14.3228 13.6502 13.6264 13.7143C11.2108 13.9765 8.783 13.9765 6.37666 13.7153C5.67261 13.6475 5.02427 13.332 4.545 12.8275C4.23431 12.4463 4.055 11.9285 4.06625 11.3978L4.06639 11.2156L4.08094 11.0568C4.11601 10.7912 4.20475 10.522 4.3423 10.2742L4.41206 10.1588C4.92342 9.58361 5.27436 8.88425 5.42893 8.13053L5.44092 8.01236L5.44636 7.24629L5.45974 6.85763C5.46581 6.73503 5.47358 6.61854 5.48332 6.50562C5.67362 4.45069 7.72235 2.82943 9.97092 2.82943ZM4.41206 10.1588C4.39969 10.1727 4.38723 10.1865 4.37467 10.2003L4.41573 10.1527L4.41206 10.1588ZM12.1733 16.4084C11.9262 16.2071 11.5646 16.2467 11.3658 16.4969C11.2796 16.6054 11.1799 16.7026 11.0688 16.7864C10.6923 17.0817 10.2225 17.2132 9.75538 17.1576C9.28896 17.102 8.86498 16.8646 8.5773 16.4991C8.37964 16.2479 8.01829 16.2066 7.77019 16.4066C7.5221 16.6067 7.48121 16.9725 7.67887 17.2236C8.15588 17.8297 8.85486 18.2211 9.62113 18.3124C10.3867 18.4036 11.1576 18.1878 11.764 17.7121C11.944 17.5764 12.1138 17.4108 12.2608 17.2258C12.4597 16.9756 12.4205 16.6096 12.1733 16.4084Z" fill="#336EBD"/>
</svg>
