<svg viewBox="0 0 512 512" xmlns="http://www.w3.org/2000/svg"><g id="Layer_2" data-name="Layer 2"><g id="Layer_1-2" data-name="Layer 1"><g id="PNG"><g id="File"><path d="m281.26 3.94h-188.16a33 33 0 0 0 -32.95 32.94v438.24a33 33 0 0 0 32.95 32.94h330.35a33 33 0 0 0 32.94-32.94l-.86-325.46z" fill="#edeceb"/><g fill="#e5252a"><path d="m423.45 512h-330.35a36.92 36.92 0 0 1 -36.89-36.88v-438.24a36.92 36.92 0 0 1 36.89-36.88h189.59l176.78 147.82.86 327.29a36.92 36.92 0 0 1 -36.88 36.89zm-330.35-504.12a29 29 0 0 0 -29 29v438.24a29 29 0 0 0 29 29h330.35a29 29 0 0 0 29-29l-.85-323.61-171.77-143.63z"/><path d="m281.26 3.94-.5 142.28s.5 3.44 3.45 3.44h171.32z"/></g></g><rect fill="#e5252a" height="175.21" rx="13.59" width="512" y="246.86"/><g id="Lines" fill="#e5252a"><rect height="5.47" rx="2.26" width="195.62" x="158.19" y="472.28"/><rect height="5.47" rx="2.26" width="167.46" x="172.27" y="459.07"/><rect height="5.47" rx="2.26" width="134.42" x="87.97" y="55.93"/><rect height="5.47" rx="2.26" width="134.42" x="87.97" y="69.83"/><rect height="5.47" rx="2.26" width="134.42" x="87.97" y="83.73"/><rect height="5.47" rx="2.26" width="134.42" x="87.97" y="97.63"/><rect height="5.47" rx="2.26" width="134.42" x="87.97" y="111.53"/><rect height="5.47" rx="2.26" width="134.42" x="87.97" y="125.44"/></g><g fill="#fff"><path d="m129.44 294.92h41.22q13.46 0 20.17 6.41t6.7 18.23q0 12.15-7.3 19t-22.31 6.85h-13.58v29.78h-24.9zm24.9 34.22h6.08q7.17 0 10.07-2.49a8 8 0 0 0 2.9-6.38 9 9 0 0 0 -2.51-6.41q-2.52-2.62-9.48-2.62h-7.06z"/><path d="m210.67 294.92h23.16l30.22 44.4v-44.4h23.37v80.26h-23.37l-30.05-44.07v44.07h-23.33z"/><path d="m344.24 346.11v-16.7h38.32v34.21q-11 7.51-19.46 10.21a65.91 65.91 0 0 1 -20.1 2.71q-14.3 0-23.29-4.87a33.31 33.31 0 0 1 -14-14.5 47.64 47.64 0 0 1 -5-22.12q0-13.14 5.42-22.86a35.2 35.2 0 0 1 15.88-14.75q8.16-3.88 21.95-3.88 13.31 0 19.9 2.4a25.83 25.83 0 0 1 10.95 7.48 33.16 33.16 0 0 1 6.54 12.83l-23.92 4.27a13 13 0 0 0 -5-7 15.72 15.72 0 0 0 -9-2.41q-8.16 0-13 5.67t-4.84 17.93q0 13 4.9 18.61t13.75 5.66a26.05 26.05 0 0 0 7.94-1.2 42.47 42.47 0 0 0 8.65-4.11v-7.55z"/></g></g></g></g></svg>