<svg width="20" height="21" viewBox="0 0 20 21" fill="none" xmlns="http://www.w3.org/2000/svg">
<path fill-rule="evenodd" clip-rule="evenodd" d="M9.61154 0.5C4.30323 0.5 0 4.70819 0 9.89926C0 15.0903 4.30323 19.2985 9.61154 19.2985C11.8817 19.2985 13.968 18.5289 15.6125 17.2419L18.7366 20.289L18.8197 20.3589C19.1097 20.5688 19.5209 20.545 19.7834 20.2876C20.0721 20.0046 20.0715 19.5462 19.782 19.2639L16.6948 16.2527C18.2648 14.5797 19.2231 12.3489 19.2231 9.89926C19.2231 4.70819 14.9198 0.5 9.61154 0.5ZM9.61157 1.94727C14.1023 1.94727 17.7427 5.50728 17.7427 9.89879C17.7427 14.2903 14.1023 17.8503 9.61157 17.8503C5.12089 17.8503 1.48047 14.2903 1.48047 9.89879C1.48047 5.50728 5.12089 1.94727 9.61157 1.94727Z" fill="#6A7683"/>
</svg>
