<svg width="20" height="20" viewBox="0 0 20 20" fill="none" xmlns="http://www.w3.org/2000/svg">
<path d="M18.3317 8.33415V12.5008C18.3317 16.6675 16.665 18.3341 12.4984 18.3341H7.49837C3.33171 18.3341 1.66504 16.6675 1.66504 12.5008V7.50081C1.66504 3.33415 3.33171 1.66748 7.49837 1.66748H11.665" stroke="#004AAD" stroke-width="1.25" stroke-linecap="round" stroke-linejoin="round"/>
<path d="M18.3317 8.33415H14.9984C12.4984 8.33415 11.665 7.50081 11.665 5.00081V1.66748L18.3317 8.33415Z" stroke="#004AAD" stroke-width="1.25" stroke-linecap="round" stroke-linejoin="round"/>
<path d="M7.50277 14.9291C8.65207 14.9291 9.5861 13.9951 9.5861 12.8458V11.1097C9.5861 9.96039 8.65207 9.02637 7.50277 9.02637C6.35346 9.02637 5.41943 9.96039 5.41943 11.1097V12.8458C5.41943 13.9951 6.35346 14.9291 7.50277 14.9291Z" stroke="#004AAD" stroke-width="0.5" stroke-linecap="round" stroke-linejoin="round"/>
<path d="M4.37744 12.1514V12.8458C4.37744 14.5715 5.77675 15.9708 7.50244 15.9708C9.22814 15.9708 10.6274 14.5715 10.6274 12.8458V12.1514" stroke="#004AAD" stroke-width="0.5" stroke-linecap="round" stroke-linejoin="round"/>
<path d="M6.49902 10.929C7.11708 10.7033 7.79069 10.7033 8.40875 10.929" stroke="#004AAD" stroke-width="0.5" stroke-linecap="round" stroke-linejoin="round"/>
<path d="M6.81836 11.9707C7.23503 11.8561 7.676 11.8561 8.09266 11.9707" stroke="#004AAD" stroke-width="0.5" stroke-linecap="round" stroke-linejoin="round"/>
</svg>
